# xmcd
#
# Track frame offsets: 
#        182
#        16537
#        27057
#        42372
#        57490
#        72360
#        89245
#        103180
#        119315
#        130447
#        146027
#        158850
#
# Disc length: 2271 seconds
#
# Revision: 5
# Processed by: cddbd v1.5.2PL0 Copyright (c) Steve Scherf et al.
# Submitted via: ExactAudioCopy v0.99pb5
#
DISCID=ab08dd0c
DTITLE=Southern Pacific - County Line
DYEAR=1990
DGENRE=Country
TTITLE0=Any Way The Wind Blows
TTITLE1=I Can't Complain
TTITLE2=Beyond Love
TTITLE3=Time's Up
TTITLE4=Memphis Queen 
TTITLE5=Side Saddle
TTITLE6=One That Got Away
TTITLE7=Reckless Heart
TTITLE8=Mary Lou
TTITLE9=Help Wanted
TTITLE10=G. T. O.
TTITLE11=I Go To Pieces
EXTD=more info - MillenniumMusicProjectFormat - SYNTAX=SongTitle{Subtit
EXTD=le}[miscInfo](Lyricist;Composer;Date,Artist,Location,State,Countr
EXTD=y)
EXTT0=
EXTT1=
EXTT2=
EXTT3=
EXTT4=
EXTT5=
EXTT6=
EXTT7=
EXTT8=
EXTT9=
EXTT10=
EXTT11=
PLAYORDER=
